Coordinates
version=1
nRows=7
nColumns=40
inDegrees=yes

Units are S.I. units (second, meters, Newtons, ...)
If the header above contains a line with 'inDegrees', this indicates whether rotational values are in degrees (yes) or radians (no).

endheader
time	pelvis_tilt	pelvis_list	pelvis_rotation	pelvis_tx	pelvis_ty	pelvis_tz	hip_flexion_r	hip_adduction_r	hip_rotation_r	knee_angle_r	knee_angle_r_beta	ankle_angle_r	subtalar_angle_r	mtp_angle_r	hip_flexion_l	hip_adduction_l	hip_rotation_l	knee_angle_l	knee_angle_l_beta	ankle_angle_l	subtalar_angle_l	mtp_angle_l	lumbar_extension	lumbar_bending	lumbar_rotation	arm_flex_r	arm_add_r	arm_rot_r	elbow_flex_r	pro_sup_r	wrist_flex_r	wrist_dev_r	arm_flex_l	arm_add_l	arm_rot_l	elbow_flex_l	pro_sup_l	wrist_flex_l	wrist_dev_l
      0.00500000	      2.11099289	      2.16228481	     -0.21350649	      0.26842468	      0.91576712	     -1.21349352	     -3.45938967	    -20.68414253	    -38.10443744	      6.11428647	      0.10671443	     -6.26666458	      9.26796200	      0.00000000	     -2.17271870	    -15.98414941	    -39.08258166	      6.15688019	      0.10745783	     -5.96787654	     18.29299022	      0.00000000	     -5.47058786	     -1.23789861	     -0.96316178	     43.99120619	    -16.64226638	     43.99120619	     75.11995324	     44.84187263	      0.00000000	      0.00000000	     43.99120619	    -16.64226638	     43.99120619	     75.11995324	     44.84187263	      0.00000000	      0.00000000
      0.01000000	      2.05667936	      2.12960781	     -0.21191854	      0.26845116	      0.91575244	     -1.21349755	     -3.44943363	    -20.59614009	    -38.02472798	      5.94875382	      0.10382534	     -6.47909317	      9.18877474	      0.00000000	     -2.13370132	    -15.99651109	    -39.03673601	      6.08550830	      0.10621216	     -6.08244925	     18.17884584	      0.00000000	     -5.40802747	     -1.16676327	     -0.93174717	     44.00723200	    -16.60501708	     44.00723200	     75.11589008	     44.85049456	      0.00000000	      0.00000000	     44.00723200	    -16.60501708	     44.00723200	     75.11589008	     44.85049456	      0.00000000	      0.00000000
      0.01500000	      2.07913428	      2.18049265	     -0.22549228	      0.26831718	      0.91574767	     -1.21348575	     -3.38189518	    -20.71619282	    -38.04526985	      6.15040931	      0.10734489	     -6.35147014	      9.16195464	      0.00000000	     -2.13158292	    -15.96105362	    -39.07793099	      6.15275672	      0.10738586	     -5.99819022	     18.23860305	      0.00000000	     -5.47522207	     -1.20502006	     -0.86829355	     44.02405877	    -16.56577757	     44.02405877	     75.11155079	     44.86021297	      0.00000000	      0.00000000	     44.02405877	    -16.56577757	     44.02405877	     75.11155079	     44.86021297	      0.00000000	      0.00000000
      0.02000000	      2.06738858	      2.11270859	     -0.15913973	      0.26820737	      0.91568660	     -1.21361956	     -3.33943874	    -20.68561816	    -38.16931646	      6.28769577	      0.10974099	     -6.20662433	      9.26778695	      0.00000000	     -2.01752850	    -16.11069634	    -39.10475594	      6.36955105	      0.11116964	     -5.82048587	     18.37316837	      0.00000000	     -5.49638528	     -1.09868557	     -0.92394051	     44.08108368	    -16.43395258	     44.08108368	     75.09739234	     44.88857470	      0.00000000	      0.00000000	     44.08108368	    -16.43395258	     44.08108368	     75.09739234	     44.88857470	      0.00000000	      0.00000000
      0.02500000	      2.03819602	      2.16214358	     -0.21026594	      0.26815941	      0.91565343	     -1.21353469	     -3.23954978	    -20.76603128	    -38.10356096	      6.36806298	      0.11114367	     -6.21144923	      9.20066093	      0.00000000	     -2.03806692	    -16.01586049	    -39.09120754	      6.25251409	      0.10912696	     -5.90681584	     18.29526125	      0.00000000	     -5.47796681	     -1.18165677	     -0.90261588	     44.10278757	    -16.38463073	     44.10278757	     75.09208251	     44.90032650	      0.00000000	      0.00000000	     44.10278757	    -16.38463073	     44.10278757	     75.09208251	     44.90032650	      0.00000000	      0.00000000
      0.03000000	      2.00822368	      2.22090972	     -0.18192343	      0.26806849	      0.91562593	     -1.21358719	     -3.20208190	    -20.82845123	    -38.07231172	      6.36227910	      0.11104272	     -6.29942730	      9.04634435	      0.00000000	     -1.98118933	    -15.94717624	    -39.05882404	      6.25373494	      0.10914827	     -5.93259750	     18.23114862	      0.00000000	     -5.47544216	     -1.21660064	     -0.84640848	     44.11962328	    -16.34684077	     44.11962328	     75.08811870	     44.90844147	      0.00000000	      0.00000000	     44.11962328	    -16.34684077	     44.11962328	     75.08811870	     44.90844147	      0.00000000	      0.00000000
      0.03500000	      1.87153060	      2.27487829	     -0.27682013	      0.26803520	      0.91539778	     -1.21351904	     -2.77870836	    -21.08396309	    -38.19065034	      6.91858484	      0.12075209	     -6.26571005	      9.04715027	      0.00000000	     -1.95099935	    -15.80764532	    -39.05404653	      5.99827183	      0.10468959	     -6.07354781	     18.29775750	      0.00000000	     -5.31386088	     -1.21742579	     -0.74516726	     44.15230748	    -16.27640799	     44.15230748	     75.08132401	     44.91991676	      0.00000000	      0.00000000	     44.15230748	    -16.27640799	     44.15230748	     75.08132401	     44.91991676	      0.00000000	      0.00000000
